<?xml version="1.0" standalone="no"?>
<!DOCTYPE svg PUBLIC "-//W3C//DTD SVG 20010904//EN"
 "http://www.w3.org/TR/2001/REC-SVG-20010904/DTD/svg10.dtd">
<svg version="1.0" xmlns="http://www.w3.org/2000/svg"
 width="2048.000000pt" height="2048.000000pt" viewBox="0 0 2048.000000 2048.000000"
 preserveAspectRatio="xMidYMid meet">

<g transform="translate(0.000000,2048.000000) scale(0.100000,-0.100000)"
fill="#000000" stroke="none">
<path d="M10065 20254 c-149 -21 -247 -41 -341 -70 -676 -204 -1166 -785
-1254 -1487 -20 -156 -8 -433 25 -582 14 -66 27 -126 28 -134 1 -9 -722 -433
-2038 -1193 -1122 -649 -2050 -1184 -2062 -1190 -20 -10 -31 -3 -106 68 -216
205 -518 364 -817 433 -222 51 -533 54 -751 7 -675 -144 -1201 -643 -1369
-1296 -73 -282 -77 -554 -14 -839 142 -638 619 -1146 1243 -1325 l76 -22 3
-2387 c2 -2109 0 -2387 -13 -2387 -35 0 -220 -67 -331 -119 -541 -258 -914
-767 -999 -1362 -17 -121 -19 -348 -5 -469 15 -120 65 -318 112 -435 270 -684
922 -1126 1659 -1125 473 1 906 176 1249 506 l45 44 2060 -1190 c1186 -684
2059 -1195 2058 -1202 -1 -7 -14 -67 -28 -133 -33 -149 -44 -412 -25 -575 87
-750 645 -1365 1389 -1530 207 -45 484 -51 691 -15 226 40 473 139 669 269
126 83 157 108 274 224 454 448 630 1092 471 1721 -26 100 -26 105 -9 117 10
8 931 541 2047 1185 l2029 1171 87 -84 c345 -331 775 -507 1242 -508 219 0
398 29 595 97 448 155 811 477 1020 907 328 672 202 1472 -318 2013 -151 158
-316 276 -522 374 -111 52 -295 119 -330 119 -13 0 -15 278 -13 2387 l3 2387
90 26 c477 140 890 495 1101 945 232 497 228 1058 -11 1550 -221 454 -634 797
-1123 931 -191 52 -324 67 -537 61 -284 -9 -477 -57 -730 -182 -169 -84 -288
-166 -418 -286 l-89 -82 -38 19 c-21 10 -950 546 -2064 1189 -1787 1031 -2026
1172 -2021 1190 4 11 18 74 33 140 25 112 27 137 26 355 0 262 -11 336 -80
555 -197 616 -735 1083 -1384 1200 -91 16 -415 29 -485 19z m-1068 -3089 c-7
-12 -1220 -2115 -2697 -4673 -1884 -3264 -2690 -4652 -2702 -4652 -9 0 -28 4
-42 10 l-26 10 2 2382 3 2383 75 23 c499 154 887 485 1105 945 173 367 218
762 130 1151 -13 56 -19 105 -15 110 5 5 935 544 2067 1197 l2058 1188 27 -26
c24 -23 26 -29 15 -48z m4683 -1173 c1081 -623 1968 -1137 1972 -1140 3 -4 -4
-53 -17 -108 -108 -475 -14 -969 260 -1379 236 -353 568 -595 990 -722 l60
-18 3 -2383 2 -2382 -27 -11 c-14 -5 -33 -8 -42 -7 -9 2 -1177 2015 -2712
4673 l-2697 4670 25 27 25 26 96 -56 c54 -30 981 -566 2062 -1190z m-3792 739
c208 -44 497 -44 704 0 57 12 114 24 128 26 24 4 168 -245 2722 -4669 l2697
-4672 -67 -71 c-131 -137 -225 -276 -313 -460 -52 -110 -119 -295 -119 -330 0
-13 -626 -15 -5398 -15 l-5399 0 -11 50 c-6 27 -28 94 -48 147 -88 236 -218
444 -390 623 l-52 55 2691 4660 c1481 2563 2696 4666 2701 4674 4 7 18 11 30
8 11 -2 67 -14 124 -26z m5764 -11095 c10 -33 17 -60 16 -62 -6 -6 -4065
-2347 -4085 -2357 -20 -9 -33 0 -116 79 -299 284 -696 457 -1103 483 -497 31
-969 -133 -1329 -462 l-84 -77 -2058 1188 c-1627 940 -2059 1193 -2061 1210
-2 11 2 30 8 41 l11 21 5391 -2 5392 -3 18 -59z"/>
</g>
</svg>
