<?xml version="1.0" standalone="no"?>
<!DOCTYPE svg PUBLIC "-//W3C//DTD SVG 20010904//EN"
 "http://www.w3.org/TR/2001/REC-SVG-20010904/DTD/svg10.dtd">
<svg version="1.0" xmlns="http://www.w3.org/2000/svg"
 width="300.000000pt" height="299.000000pt" viewBox="0 0 300.000000 299.000000"
 preserveAspectRatio="xMidYMid meet">

<g transform="translate(0.000000,299.000000) scale(0.100000,-0.100000)"
fill="#000000" stroke="none">
<path d="M1725 2980 c-11 -5 -15 -9 -8 -9 7 -1 24 -21 38 -44 32 -55 33 -121
4 -179 -16 -32 -20 -54 -17 -95 3 -30 10 -59 17 -66 10 -9 11 -9 6 4 -9 24 10
96 35 132 13 18 47 51 76 75 63 50 68 74 27 123 -46 54 -127 81 -178 59z"/>
<path d="M2010 2917 c0 -46 -43 -107 -105 -151 -83 -58 -107 -102 -103 -188
l4 -66 -66 25 c-200 79 -377 109 -585 100 -291 -13 -445 -74 -620 -244 -112
-109 -182 -152 -290 -178 -38 -10 -89 -24 -112 -32 -59 -20 -109 -81 -123
-149 -14 -66 2 -101 65 -146 28 -20 49 -44 56 -65 15 -47 51 -86 98 -108 38
-17 40 -20 43 -69 l3 -51 30 42 c17 23 32 42 35 43 3 0 3 -25 2 -56 -6 -82 9
-86 59 -15 41 58 44 60 98 68 91 13 279 7 354 -11 323 -77 581 -332 663 -654
30 -119 30 -125 -3 -83 -26 33 -76 61 -110 61 -11 0 -27 -17 -42 -45 -27 -51
-88 -125 -103 -125 -5 0 -7 12 -4 27 3 16 2 46 -2 67 l-7 39 -18 -49 c-10 -27
-30 -67 -46 -89 -25 -37 -31 -40 -70 -38 -50 2 -121 41 -146 79 -17 26 -17 35
1 150 7 47 -6 62 -60 71 -85 14 -169 -37 -202 -123 -35 -92 2 -237 86 -327
l41 -45 -38 -7 c-21 -3 -45 -10 -52 -15 -19 -11 39 -40 154 -76 76 -24 107
-28 205 -28 133 -1 207 16 318 70 189 92 340 278 389 478 14 60 18 66 26 45
17 -45 10 -228 -12 -313 -41 -155 -139 -308 -256 -399 -30 -23 -53 -42 -52
-44 7 -6 194 38 272 65 49 17 91 30 92 28 2 -1 -26 -37 -61 -78 -76 -89 -203
-193 -318 -260 -92 -53 -91 -53 77 -21 293 56 588 252 759 505 33 48 61 87 62
85 5 -5 -32 -139 -54 -199 -24 -65 -90 -195 -124 -248 l-23 -35 63 48 c211
163 372 407 438 666 13 52 26 96 28 98 9 9 19 -81 25 -207 l6 -135 49 78 c279
445 248 1024 -81 1522 -33 50 -80 112 -105 139 l-45 50 -6 -59 c-9 -87 -73
-212 -147 -284 -100 -98 -233 -154 -370 -155 -75 0 -156 11 -147 20 3 3 33 12
67 20 151 35 289 146 355 286 119 249 24 537 -225 681 -75 43 -90 46 -90 14z"/>
</g>
</svg>
