<svg xmlns="http://www.w3.org/2000/svg" xmlns:xlink="http://www.w3.org/1999/xlink" width="222.135" height="164.135" viewBox="0 0 222.135 164.135">
  <defs>
    <filter id="Union_15" x="0" y="0" width="222.135" height="164.135" filterUnits="userSpaceOnUse">
      <feOffset dy="3" input="SourceAlpha"/>
      <feGaussianBlur stdDeviation="3" result="blur"/>
      <feFlood flood-opacity="0.161"/>
      <feComposite operator="in" in2="blur"/>
      <feComposite in="SourceGraphic"/>
    </filter>
  </defs>
  <g id="crawl" transform="translate(9 6)">
    <g transform="matrix(1, 0, 0, 1, -9, -6)" filter="url(#Union_15)">
      <path id="Union_15-2" data-name="Union 15" d="M-2798.863-3702.078v-49.882l-81.671-39.443a11.23,11.23,0,0,1-4.574,1.273,12.118,12.118,0,0,1-5.863-1.446L-2973-3751.96v49.882l12.894,22.49-27.894-22.49v-55.911h.51l81.058-52.185c2.959-4.05,11.614-14.946,19.459-15.526,9.648-.713,22.622,15.3,22.622,15.3s-.125.249-.362.691l80.339,51.721h.51v55.911l-27.9,22.49Z" transform="translate(2997 3831.72)" fill="#e5aa50"/>
    </g>
  </g>
</svg>
