<?xml version="1.0" standalone="no"?>
<!DOCTYPE svg PUBLIC "-//W3C//DTD SVG 20010904//EN"
 "http://www.w3.org/TR/2001/REC-SVG-20010904/DTD/svg10.dtd">
<svg version="1.0" xmlns="http://www.w3.org/2000/svg"
 width="629.000000pt" height="629.000000pt" viewBox="0 0 629.000000 629.000000"
 preserveAspectRatio="xMidYMid meet">

<g transform="translate(0.000000,629.000000) scale(0.100000,-0.100000)"
fill="#000000" stroke="none">
<path d="M4194 4436 c-35 -41 -42 -48 -129 -161 -38 -50 -72 -92 -75 -95 -22
-19 -557 -734 -630 -843 -14 -20 -30 -37 -36 -37 -9 0 -164 209 -285 385 -108
156 -121 170 -167 173 -23 2 -42 -1 -42 -6 0 -9 34 -58 139 -202 34 -47 96
-134 138 -195 42 -60 97 -136 121 -168 41 -54 43 -59 29 -81 -14 -21 -183
-254 -319 -441 -117 -159 -146 -204 -140 -209 3 -3 22 -6 42 -6 42 0 27 -17
194 215 206 288 288 397 293 391 3 -3 31 -41 62 -84 31 -44 94 -133 141 -197
47 -65 99 -137 115 -160 119 -167 117 -164 163 -165 43 0 52 11 30 35 -7 8
-35 44 -61 82 -27 37 -125 174 -219 303 -93 129 -172 240 -175 247 -2 6 35 69
83 140 48 70 101 148 117 173 17 25 33 47 36 50 14 12 51 70 51 79 0 5 3 11 8
13 4 2 25 30 48 63 22 33 66 96 96 140 30 44 79 116 109 160 29 44 56 82 59
85 3 3 28 39 56 80 28 41 81 119 118 173 69 99 80 123 30 63z"/>
<path d="M782 3208 l3 -653 38 -3 37 -3 2 558 c1 307 2 575 1 596 -1 20 2 37
7 37 8 0 116 -154 324 -465 45 -66 85 -124 89 -130 14 -16 133 -190 262 -380
113 -167 590 -815 600 -815 6 0 -7 33 -18 45 -5 6 -287 426 -626 935 l-616
925 -53 3 -52 3 2 -653z"/>
<path d="M1875 3848 c-3 -7 -4 -301 -3 -653 l3 -640 438 -3 438 -2 -3 37 -3
38 -398 3 -397 2 2 283 3 282 368 3 367 2 0 35 0 35 -370 0 -370 0 0 260 0
260 396 0 395 0 -3 33 -3 32 -428 3 c-337 2 -429 0 -432 -10z"/>
<path d="M3890 3825 l0 -35 228 -2 227 -3 3 -618 2 -618 38 3 37 3 3 617 2
618 228 2 227 3 0 30 0 30 -497 3 -498 2 0 -35z"/>
<path d="M5221 2911 c-18 -17 -31 -39 -31 -54 0 -36 34 -74 76 -81 60 -12 84
-27 84 -53 0 -43 -77 -55 -114 -18 -15 15 -38 20 -49 9 -10 -10 21 -50 49 -62
48 -22 99 -15 133 19 58 58 36 107 -61 140 -29 10 -57 24 -62 32 -27 42 40 71
85 38 39 -29 62 -28 53 2 -3 12 -7 22 -8 23 0 0 -13 8 -28 17 -42 26 -91 22
-127 -12z"/>
<path d="M5085 2918 c-3 -7 -6 -60 -7 -118 l-3 -105 -33 -3 c-22 -2 -34 2 -38
12 -6 17 -54 23 -54 7 0 -5 12 -23 26 -40 28 -34 63 -40 109 -19 34 15 46 66
43 180 -3 79 -6 93 -21 96 -9 2 -19 -2 -22 -10z"/>
<path d="M4854 2685 c-8 -20 13 -45 32 -38 8 3 14 16 14 29 0 17 -6 24 -20 24
-11 0 -23 -7 -26 -15z"/>
</g>
</svg>
