<svg xmlns="http://www.w3.org/2000/svg" xmlns:xlink="http://www.w3.org/1999/xlink" width="86" height="83.929" viewBox="0 0 86 83.929">
  <defs>
    <filter id="puzzle" x="0" y="0" width="86" height="83.929" filterUnits="userSpaceOnUse">
      <feOffset dy="3" input="SourceAlpha"/>
      <feGaussianBlur stdDeviation="1" result="blur"/>
      <feFlood flood-opacity="0.161"/>
      <feComposite operator="in" in2="blur"/>
      <feComposite in="SourceGraphic"/>
    </filter>
  </defs>
  <g transform="matrix(1, 0, 0, 1, 0, 0)" filter="url(#puzzle)">
    <path id="puzzle-2" data-name="puzzle" d="M-4031.522-3709.071H-4056v-23.651c.191.2.317.337.352.375a7.164,7.164,0,0,0,5.661-2.515,8.621,8.621,0,0,0,1.925-5.506,7.307,7.307,0,0,0-7.586-7.688l-.007.011c-.114.149-.23.3-.345.441v-24.061h24.436c.788-.643,3.359-2.843,3.385-4.143.012-.575-.625-.6-1.433-.642-1.343-.062-3.183-.147-3.408-2.777a5.516,5.516,0,0,1,1.961-4.379,12.814,12.814,0,0,1,8.368-3.393h.143a8.356,8.356,0,0,1,3.923,1.147,11.03,11.03,0,0,1,3.1,2.612c1.252,1.552,1.767,3.163,1.375,4.308-.555,1.624-1.971,1.873-3.108,2.072-.858.15-1.534.268-1.548.926-.022,1.187,2.723,3.381,3.9,4.269h23.638v24.609c.806.836,2.812,2.78,4.006,2.78.575,0,.595-.573.619-1.3.042-1.21.1-2.866,2.72-3.113.148-.014.295-.02.436-.02a5.413,5.413,0,0,1,2.867.876,9.023,9.023,0,0,1,2.385,2.236,10.745,10.745,0,0,1,2.235,6.186,7.991,7.991,0,0,1-2.485,5.353,7.229,7.229,0,0,1-4.668,2.438,2.786,2.786,0,0,1-.77-.1c-1.632-.471-1.9-1.74-2.118-2.759-.164-.768-.293-1.374-.949-1.374-1.206,0-3.394,2.575-4.278,3.681v23.1h-24.716c.293-.216.507-.363.565-.4h0a5.946,5.946,0,0,0-2.495-5.084,10.7,10.7,0,0,0-6.157-2.013c-.13,0-.267-.007-.4-.007-4.8,0-8.256,2.7-8.406,6.555h0l.008.005c.151.1.7.465,1.345.948Z" transform="translate(4059 3787)" fill="#e5aa50"/>
  </g>
</svg>
