<svg xmlns="http://www.w3.org/2000/svg" xmlns:xlink="http://www.w3.org/1999/xlink" width="173" height="205" viewBox="0 0 173 205">
  <defs>
    <clipPath id="clip-path">
      <rect width="173" height="205" fill="none"/>
    </clipPath>
  </defs>
  <g id="Stamp-cream" opacity="0.7">
    <g id="Repeat_Grid_3" data-name="Repeat Grid 3" clip-path="url(#clip-path)">
      <g transform="translate(-1448 -1468)">
        <circle id="Ellipse_26" data-name="Ellipse 26" cx="7.5" cy="7.5" r="7.5" transform="translate(1448 1468)" fill="#fff8cb"/>
      </g>
      <g transform="translate(-1418 -1468)">
        <circle id="Ellipse_26-2" data-name="Ellipse 26" cx="7.5" cy="7.5" r="7.5" transform="translate(1448 1468)" fill="#fff8cb"/>
      </g>
      <g transform="translate(-1388 -1468)">
        <circle id="Ellipse_26-3" data-name="Ellipse 26" cx="7.5" cy="7.5" r="7.5" transform="translate(1448 1468)" fill="#fff8cb"/>
      </g>
      <g transform="translate(-1358 -1468)">
        <circle id="Ellipse_26-4" data-name="Ellipse 26" cx="7.5" cy="7.5" r="7.5" transform="translate(1448 1468)" fill="#fff8cb"/>
      </g>
      <g transform="translate(-1328 -1468)">
        <circle id="Ellipse_26-5" data-name="Ellipse 26" cx="7.5" cy="7.5" r="7.5" transform="translate(1448 1468)" fill="#fff8cb"/>
      </g>
      <g transform="translate(-1298 -1468)">
        <circle id="Ellipse_26-6" data-name="Ellipse 26" cx="7.5" cy="7.5" r="7.5" transform="translate(1448 1468)" fill="#fff8cb"/>
      </g>
      <g transform="translate(-1448 -1438)">
        <circle id="Ellipse_26-7" data-name="Ellipse 26" cx="7.5" cy="7.5" r="7.5" transform="translate(1448 1468)" fill="#fff8cb"/>
      </g>
      <g transform="translate(-1418 -1438)">
        <circle id="Ellipse_26-8" data-name="Ellipse 26" cx="7.5" cy="7.5" r="7.5" transform="translate(1448 1468)" fill="#fff8cb"/>
      </g>
      <g transform="translate(-1388 -1438)">
        <circle id="Ellipse_26-9" data-name="Ellipse 26" cx="7.5" cy="7.5" r="7.5" transform="translate(1448 1468)" fill="#fff8cb"/>
      </g>
      <g transform="translate(-1358 -1438)">
        <circle id="Ellipse_26-10" data-name="Ellipse 26" cx="7.5" cy="7.5" r="7.5" transform="translate(1448 1468)" fill="#fff8cb"/>
      </g>
      <g transform="translate(-1328 -1438)">
        <circle id="Ellipse_26-11" data-name="Ellipse 26" cx="7.5" cy="7.5" r="7.5" transform="translate(1448 1468)" fill="#fff8cb"/>
      </g>
      <g transform="translate(-1298 -1438)">
        <circle id="Ellipse_26-12" data-name="Ellipse 26" cx="7.5" cy="7.5" r="7.5" transform="translate(1448 1468)" fill="#fff8cb"/>
      </g>
      <g transform="translate(-1448 -1408)">
        <circle id="Ellipse_26-13" data-name="Ellipse 26" cx="7.5" cy="7.5" r="7.5" transform="translate(1448 1468)" fill="#fff8cb"/>
      </g>
      <g transform="translate(-1418 -1408)">
        <circle id="Ellipse_26-14" data-name="Ellipse 26" cx="7.5" cy="7.5" r="7.5" transform="translate(1448 1468)" fill="#fff8cb"/>
      </g>
      <g transform="translate(-1388 -1408)">
        <circle id="Ellipse_26-15" data-name="Ellipse 26" cx="7.5" cy="7.5" r="7.5" transform="translate(1448 1468)" fill="#fff8cb"/>
      </g>
      <g transform="translate(-1358 -1408)">
        <circle id="Ellipse_26-16" data-name="Ellipse 26" cx="7.5" cy="7.5" r="7.5" transform="translate(1448 1468)" fill="#fff8cb"/>
      </g>
      <g transform="translate(-1328 -1408)">
        <circle id="Ellipse_26-17" data-name="Ellipse 26" cx="7.5" cy="7.5" r="7.5" transform="translate(1448 1468)" fill="#fff8cb"/>
      </g>
      <g transform="translate(-1298 -1408)">
        <circle id="Ellipse_26-18" data-name="Ellipse 26" cx="7.5" cy="7.5" r="7.5" transform="translate(1448 1468)" fill="#fff8cb"/>
      </g>
      <g transform="translate(-1448 -1378)">
        <circle id="Ellipse_26-19" data-name="Ellipse 26" cx="7.5" cy="7.5" r="7.5" transform="translate(1448 1468)" fill="#fff8cb"/>
      </g>
      <g transform="translate(-1418 -1378)">
        <circle id="Ellipse_26-20" data-name="Ellipse 26" cx="7.5" cy="7.5" r="7.5" transform="translate(1448 1468)" fill="#fff8cb"/>
      </g>
      <g transform="translate(-1388 -1378)">
        <circle id="Ellipse_26-21" data-name="Ellipse 26" cx="7.5" cy="7.5" r="7.5" transform="translate(1448 1468)" fill="#fff8cb"/>
      </g>
      <g transform="translate(-1358 -1378)">
        <circle id="Ellipse_26-22" data-name="Ellipse 26" cx="7.5" cy="7.5" r="7.5" transform="translate(1448 1468)" fill="#fff8cb"/>
      </g>
      <g transform="translate(-1328 -1378)">
        <circle id="Ellipse_26-23" data-name="Ellipse 26" cx="7.5" cy="7.5" r="7.5" transform="translate(1448 1468)" fill="#fff8cb"/>
      </g>
      <g transform="translate(-1298 -1378)">
        <circle id="Ellipse_26-24" data-name="Ellipse 26" cx="7.5" cy="7.5" r="7.5" transform="translate(1448 1468)" fill="#fff8cb"/>
      </g>
      <g transform="translate(-1448 -1348)">
        <circle id="Ellipse_26-25" data-name="Ellipse 26" cx="7.5" cy="7.5" r="7.5" transform="translate(1448 1468)" fill="#fff8cb"/>
      </g>
      <g transform="translate(-1418 -1348)">
        <circle id="Ellipse_26-26" data-name="Ellipse 26" cx="7.5" cy="7.5" r="7.5" transform="translate(1448 1468)" fill="#fff8cb"/>
      </g>
      <g transform="translate(-1388 -1348)">
        <circle id="Ellipse_26-27" data-name="Ellipse 26" cx="7.5" cy="7.5" r="7.5" transform="translate(1448 1468)" fill="#fff8cb"/>
      </g>
      <g transform="translate(-1358 -1348)">
        <circle id="Ellipse_26-28" data-name="Ellipse 26" cx="7.5" cy="7.5" r="7.5" transform="translate(1448 1468)" fill="#fff8cb"/>
      </g>
      <g transform="translate(-1328 -1348)">
        <circle id="Ellipse_26-29" data-name="Ellipse 26" cx="7.5" cy="7.5" r="7.5" transform="translate(1448 1468)" fill="#fff8cb"/>
      </g>
      <g transform="translate(-1298 -1348)">
        <circle id="Ellipse_26-30" data-name="Ellipse 26" cx="7.5" cy="7.5" r="7.5" transform="translate(1448 1468)" fill="#fff8cb"/>
      </g>
      <g transform="translate(-1448 -1318)">
        <circle id="Ellipse_26-31" data-name="Ellipse 26" cx="7.5" cy="7.5" r="7.5" transform="translate(1448 1468)" fill="#fff8cb"/>
      </g>
      <g transform="translate(-1418 -1318)">
        <circle id="Ellipse_26-32" data-name="Ellipse 26" cx="7.5" cy="7.5" r="7.5" transform="translate(1448 1468)" fill="#fff8cb"/>
      </g>
      <g transform="translate(-1388 -1318)">
        <circle id="Ellipse_26-33" data-name="Ellipse 26" cx="7.5" cy="7.5" r="7.5" transform="translate(1448 1468)" fill="#fff8cb"/>
      </g>
      <g transform="translate(-1358 -1318)">
        <circle id="Ellipse_26-34" data-name="Ellipse 26" cx="7.5" cy="7.5" r="7.5" transform="translate(1448 1468)" fill="#fff8cb"/>
      </g>
      <g transform="translate(-1328 -1318)">
        <circle id="Ellipse_26-35" data-name="Ellipse 26" cx="7.5" cy="7.5" r="7.5" transform="translate(1448 1468)" fill="#fff8cb"/>
      </g>
      <g transform="translate(-1298 -1318)">
        <circle id="Ellipse_26-36" data-name="Ellipse 26" cx="7.5" cy="7.5" r="7.5" transform="translate(1448 1468)" fill="#fff8cb"/>
      </g>
      <g transform="translate(-1448 -1288)">
        <circle id="Ellipse_26-37" data-name="Ellipse 26" cx="7.5" cy="7.5" r="7.5" transform="translate(1448 1468)" fill="#fff8cb"/>
      </g>
      <g transform="translate(-1418 -1288)">
        <circle id="Ellipse_26-38" data-name="Ellipse 26" cx="7.5" cy="7.5" r="7.5" transform="translate(1448 1468)" fill="#fff8cb"/>
      </g>
      <g transform="translate(-1388 -1288)">
        <circle id="Ellipse_26-39" data-name="Ellipse 26" cx="7.5" cy="7.5" r="7.5" transform="translate(1448 1468)" fill="#fff8cb"/>
      </g>
      <g transform="translate(-1358 -1288)">
        <circle id="Ellipse_26-40" data-name="Ellipse 26" cx="7.5" cy="7.5" r="7.5" transform="translate(1448 1468)" fill="#fff8cb"/>
      </g>
      <g transform="translate(-1328 -1288)">
        <circle id="Ellipse_26-41" data-name="Ellipse 26" cx="7.5" cy="7.5" r="7.5" transform="translate(1448 1468)" fill="#fff8cb"/>
      </g>
      <g transform="translate(-1298 -1288)">
        <circle id="Ellipse_26-42" data-name="Ellipse 26" cx="7.5" cy="7.5" r="7.5" transform="translate(1448 1468)" fill="#fff8cb"/>
      </g>
    </g>
  </g>
</svg>
